<svg width="1135" height="100" viewBox="0 0 1135 100" fill="none" xmlns="http://www.w3.org/2000/svg">
<g clip-path="url(#clip0_1_4065)">
<path d="M121.406 46.9061L121.421 82.852L129.533 85.427L137.646 88.002L137.671 57.4082C137.702 28.5228 137.706 26.7895 137.787 26.3853C137.908 25.7957 138.014 25.4582 138.175 25.0895C138.733 23.8499 139.698 23.3353 140.871 23.6624C142.589 24.1353 143.577 25.3853 143.939 27.5436C144.106 28.5457 144.121 29.5686 144.121 41.7686V53.9041L144.6 54.1311C145.643 54.6145 147.029 55.1041 148.116 55.3603C154.9 56.9582 159.939 53.7166 161.631 46.6728C162.104 44.6978 162.302 42.5707 162.241 39.9749C162.16 36.3311 161.758 33.5395 160.956 31.0957C159.691 27.2103 157.404 24.2228 153.846 21.8041C150.821 19.7499 147.318 18.1874 141.654 16.3686C134.543 14.0853 127.589 12.1853 122.716 11.1936C122.096 11.0686 121.541 10.9666 121.491 10.9666C121.396 10.9666 121.396 11.6207 121.406 46.9061ZM109.554 57.4645C104.771 59.1624 99.5455 61.0228 97.9372 61.5915C93.7101 63.0936 93.2955 63.2436 92.2934 63.652C89.4268 64.8165 86.9726 66.1374 85.6559 67.2249C85.1768 67.6228 84.7434 68.1624 84.4809 68.6916C84.1538 69.3457 84.0872 69.6645 84.1122 70.4311C84.133 70.9707 84.158 71.1207 84.2893 71.4749C84.5768 72.2665 85.1705 73.0832 85.958 73.7728C87.0455 74.7249 88.9872 75.7186 90.8809 76.302C91.2143 76.402 91.8393 76.5999 92.2663 76.7311C100.379 79.2811 108.721 79.8603 117.11 78.4541L118.243 78.2624L118.258 74.0186C118.262 71.6457 118.248 69.7749 118.223 69.7749C118.202 69.7749 117.366 70.0728 116.373 70.4353C109.368 72.9853 109.127 73.0603 107.66 73.3228C104.673 73.8624 101.502 73.7061 99.9497 72.9499C99.033 72.5061 98.7705 72.0124 99.1184 71.4082C99.3747 70.9541 100.031 70.477 100.883 70.1186C101.089 70.0332 105.081 68.5957 109.741 66.9228C114.408 65.2541 118.237 63.8791 118.248 63.8645C118.258 63.8541 118.262 61.7124 118.258 59.1082L118.243 54.3707L109.554 57.4645ZM156.671 58.5165C151.898 58.779 146.471 59.7874 141.946 61.2436L140.746 61.6311V66.5353C140.746 69.6749 140.76 71.4395 140.796 71.4395C140.841 71.4395 142.56 70.8353 152.789 67.2311C158.443 65.2353 158.691 65.1499 159.416 64.9645C163.106 63.9978 167.716 64.2291 169.041 65.4478C169.425 65.7999 169.51 66.1228 169.318 66.502C169.081 66.9665 168.587 67.3582 167.752 67.7561C167.464 67.8915 165.131 68.754 162.566 69.6665C160.002 70.5832 155.889 72.0457 153.421 72.927C145.937 75.5936 140.929 77.377 140.837 77.4124C140.752 77.4478 140.746 77.7207 140.746 82.1853C140.746 86.6749 140.75 86.9228 140.837 86.8874C140.937 86.8478 154.806 81.8686 171.406 75.9061C174.229 74.8874 176.858 73.9207 177.252 73.7541C179.408 72.827 181.389 71.5978 182.468 70.5291C183.464 69.5374 183.883 68.6603 183.883 67.5832C183.883 66.4332 183.454 65.5582 182.391 64.5395C181.485 63.6624 179.866 62.7061 178.189 62.0499C177.323 61.7124 174.496 60.7457 173.604 60.4832C170.273 59.5061 166.881 58.9207 162.618 58.5832C161.962 58.5311 157.346 58.4811 156.671 58.5165Z" fill="url(#paint0_linear_1_4065)"/>
</g>
<g style="mix-blend-mode:multiply">
<path d="M384.938 69.5C382.782 74.2891 381.743 76.4297 378.969 80.6562C375.086 86.5625 369.61 93.9375 362.844 93.9844C356.821 94.0391 355.266 90.0547 347.086 90.125C338.915 90.1641 337.211 94.0625 331.18 94C324.407 93.9375 319.227 87.2969 315.344 81.3984C304.485 64.8594 303.336 45.4688 310.047 35.1562C314.797 27.8438 322.305 23.5469 329.36 23.5469C336.547 23.5469 341.063 27.4922 347 27.4922C352.766 27.4922 356.274 23.5391 364.586 23.5391C370.868 23.5391 377.508 26.9609 382.258 32.8672C366.727 41.3828 369.25 63.5625 384.938 69.5ZM358.274 16.9375C361.297 13.0547 363.594 7.57813 362.758 2C357.829 2.33594 352.063 5.48438 348.696 9.5625C345.641 13.2812 343.11 18.7969 344.094 24.1328C349.477 24.3047 355.047 21.0938 358.274 16.9375Z" fill="black"/>
</g>
<path d="M557.883 4C549.301 4 541.12 6.40156 534.336 10.6016C533.898 10.7476 533.141 11.3236 532.453 11.9336C538.543 7.09559 552.626 16.7859 556.738 19.6719C557.43 20.1579 558.339 20.1579 559.031 19.6719C563.143 16.7859 577.226 7.09359 583.316 11.9336C582.628 11.3236 581.87 10.7476 581.434 10.6016C574.648 6.40156 566.465 4 557.883 4ZM529.883 16C526.689 16 524.355 18.6016 524.355 18.6016C516.771 26.8016 511.984 37.8 511.984 50C511.984 75.4 532.539 96 557.883 96C571.253 96 583.427 90.2 591.809 81C591.809 81 590.811 74.9992 584.625 66.1992C577.707 55.7652 563.693 42.6238 559.207 38.5898C558.441 37.9018 557.299 37.9056 556.539 38.6016C553.159 41.6956 544.438 50.3556 542.516 52.6016C537.926 57.4016 525.153 72.5992 524.355 81.1992C524.355 81.1992 521.56 74.4008 527.746 58.8008C531.596 49.4288 543.554 35.496 549.352 29.418C550.122 28.612 550.103 27.3382 549.289 26.5742C547.369 24.7762 542.893 21.6252 538.859 19.1992C536.067 17.3992 532.877 16.2 529.883 16ZM585.262 16C583.956 16 575.471 18.6857 566.543 26.5977C565.699 27.3457 565.665 28.6509 566.449 29.4609C569.683 32.8029 578.528 41.3628 583.828 49.8008C590.414 60.6008 594.404 69.2 592.008 81C599.392 72.8 603.984 62 603.984 50C603.784 38 599.193 27.0008 591.609 18.8008C591.409 18.6008 591.21 18.3992 591.012 18.1992C589.416 16.3992 587.058 16 585.262 16Z" fill="black"/>
<g clip-path="url(#clip1_1_4065)">
<path d="M748.546 67.4001C747.727 67.3876 747.071 66.8126 747.101 66.1251C747.116 65.4376 747.801 64.8876 748.62 64.9126C749.439 64.9251 750.094 65.5001 750.064 66.1876C750.049 66.8626 749.394 67.4001 748.592 67.4001C748.575 67.4001 748.56 67.4001 748.546 67.4001ZM754.635 66.1626C754.604 65.4751 755.246 64.9001 756.065 64.8751H756.08C756.899 64.8501 757.584 65.3876 757.613 66.0876C757.628 66.7751 756.988 67.3501 756.169 67.3751C756.153 67.3751 756.138 67.3751 756.124 67.3751C755.32 67.3751 754.65 66.8376 754.635 66.1626ZM740.922 67.0376C740.103 66.9751 739.493 66.3626 739.582 65.6751C739.658 64.9876 740.386 64.4876 741.205 64.5501C742.025 64.6126 742.619 65.2251 742.545 65.9126C742.471 66.5626 741.815 67.0376 741.071 67.0376C741.01 67.0376 740.967 67.0376 740.922 67.0376ZM762.155 65.8751C762.095 65.1876 762.706 64.5751 763.525 64.5251C764.343 64.4751 765.058 64.9876 765.118 65.6751C765.192 66.3626 764.567 66.9626 763.763 67.0251C763.718 67.0251 763.673 67.0251 763.644 67.0251C762.869 67.0251 762.214 66.5251 762.155 65.8751ZM769.659 65.3001C769.555 64.6126 770.15 64.0001 770.969 63.9126C771.773 63.8376 772.518 64.3251 772.622 65.0126C772.711 65.7001 772.131 66.3126 771.312 66.4001C771.252 66.4001 771.193 66.4001 771.133 66.4001C770.389 66.4001 769.748 65.9376 769.659 65.3001ZM733.299 66.0751C732.495 65.9376 731.988 65.2751 732.152 64.6001C732.329 63.9251 733.118 63.4876 733.922 63.6376C734.726 63.7876 735.233 64.4501 735.07 65.1251C734.92 65.7126 734.295 66.1126 733.611 66.1126C733.506 66.1126 733.403 66.1001 733.299 66.0751ZM777.134 64.4876C776.998 63.8001 777.565 63.1626 778.37 63.0626C779.188 62.9501 779.948 63.4251 780.067 64.1001C780.201 64.7876 779.65 65.4251 778.831 65.5376C778.757 65.5376 778.682 65.5501 778.608 65.5501C777.878 65.5501 777.253 65.1001 777.134 64.4876ZM784.562 63.4501C784.413 62.7626 784.934 62.1126 785.738 61.9876C786.559 61.8501 787.332 62.3001 787.48 62.9751C787.644 63.6501 787.125 64.3001 786.304 64.4376C786.215 64.4501 786.127 64.4626 786.023 64.4626C785.323 64.4626 784.698 64.0501 784.562 63.4501ZM725.808 64.0501C725.063 63.7376 724.75 62.9876 725.123 62.3751C725.48 61.7501 726.373 61.4876 727.103 61.8001C727.847 62.1001 728.16 62.8501 727.788 63.4626C727.535 63.9126 727 64.1751 726.449 64.1751C726.241 64.1751 726.018 64.1251 725.808 64.0501ZM791.947 62.1751C791.77 61.5126 792.26 60.8376 793.064 60.6876C793.868 60.5251 794.657 60.9501 794.851 61.6126C795.044 62.2876 794.538 62.9626 793.734 63.1126C793.631 63.1376 793.512 63.1501 793.393 63.1501C792.723 63.1501 792.113 62.7626 791.947 62.1751ZM799.273 60.6876C799.051 60.0126 799.511 59.3251 800.315 59.1501C801.105 58.9626 801.923 59.3501 802.147 60.0251C802.355 60.6876 801.894 61.3751 801.105 61.5501C800.971 61.5876 800.837 61.6001 800.703 61.6001C800.049 61.6001 799.452 61.2376 799.273 60.6876ZM806.511 58.9251C806.258 58.2751 806.69 57.5626 807.479 57.3501H807.462C808.252 57.1376 809.087 57.5001 809.355 58.1501C809.608 58.8126 809.176 59.5126 808.387 59.7376C808.387 59.7376 808.387 59.7376 808.387 59.7251C808.238 59.7751 808.091 59.7876 807.925 59.7876C807.3 59.7876 806.718 59.4501 806.511 58.9251ZM719.986 58.7501C719.986 58.7501 719.986 58.7501 719.986 58.7376C719.837 58.0626 720.374 57.4126 721.178 57.2876C721.982 57.1626 722.77 57.6126 722.92 58.2876C723.069 58.9751 722.533 59.6251 721.713 59.7501C721.624 59.7626 721.534 59.7626 721.445 59.7626C720.747 59.7626 720.121 59.3501 719.986 58.7501ZM813.643 56.8876C813.345 56.2376 813.734 55.5126 814.507 55.2626C815.266 55.0126 816.13 55.3376 816.427 55.9876C816.725 56.6251 816.338 57.3501 815.579 57.6001C815.4 57.6501 815.223 57.6876 815.044 57.6876C814.432 57.6876 813.881 57.3751 813.643 56.8876ZM723.263 53.8376C722.669 53.3626 722.652 52.5626 723.22 52.0751C723.8 51.5751 724.739 51.5626 725.334 52.0376C725.928 52.5126 725.943 53.3126 725.364 53.8001H725.379C725.082 54.0626 724.694 54.1876 724.293 54.1876C723.918 54.1876 723.546 54.0751 723.263 53.8376ZM827.342 51.6126C826.91 51.0251 827.118 50.2626 827.818 49.9001C828.518 49.5251 829.441 49.7126 829.873 50.3001C830.305 50.8751 830.081 51.6501 829.396 52.0126C829.143 52.1501 828.875 52.2001 828.607 52.2001C828.114 52.2001 827.623 52.0001 827.342 51.6126ZM728.966 49.7251C728.534 49.1376 728.742 48.3751 729.442 48.0001C730.142 47.6376 731.065 47.8126 731.497 48.4126C731.929 48.9876 731.72 49.7626 731.02 50.1251C730.767 50.2501 730.499 50.3126 730.233 50.3126C729.74 50.3126 729.249 50.1126 728.966 49.7251ZM833.506 47.9876C832.925 47.5126 832.912 46.7126 833.476 46.2251C834.042 45.7251 834.995 45.7126 835.576 46.2001C836.17 46.6751 836.185 47.4626 835.619 47.9626C835.322 48.2126 834.934 48.3376 834.547 48.3376C834.176 48.3376 833.804 48.2251 833.506 47.9876ZM742.411 44.0376C742.113 43.3876 742.485 42.6626 743.26 42.4126C744.019 42.1626 744.883 42.4876 745.18 43.1251C745.477 43.7751 745.09 44.5001 744.332 44.7501C744.153 44.8001 743.974 44.8376 743.796 44.8376C743.2 44.8376 742.634 44.5251 742.411 44.0376ZM835.978 41.7376C835.963 41.7251 835.963 41.7126 835.963 41.7001C835.963 41.7001 835.963 41.6876 835.963 41.6751C835.799 41.0001 836.32 40.3501 837.139 40.2126C837.943 40.0751 838.717 40.5251 838.881 41.2001C838.881 41.2251 838.896 41.2501 838.896 41.2751C838.896 41.2876 838.896 41.3001 838.911 41.3126C839.046 41.9876 838.509 42.6376 837.691 42.7501C837.601 42.7626 837.528 42.7751 837.438 42.7751C836.722 42.7751 836.097 42.3376 835.978 41.7376ZM749.484 41.8626C749.23 41.2001 749.662 40.5001 750.437 40.2876C751.226 40.0626 752.06 40.4251 752.314 41.0876C752.567 41.7376 752.135 42.4501 751.36 42.6626C751.211 42.7001 751.047 42.7251 750.898 42.7251C750.273 42.7251 749.692 42.3876 749.484 41.8626ZM756.69 40.0001C756.467 39.3251 756.928 38.6376 757.732 38.4501C758.522 38.2751 759.341 38.6626 759.562 39.3251C759.772 40.0001 759.309 40.6876 758.505 40.8626C758.386 40.9001 758.252 40.9126 758.118 40.9126C757.464 40.9126 756.869 40.5501 756.69 40.0001ZM763.97 38.4001C763.793 37.7251 764.282 37.0501 765.086 36.9001C765.891 36.7376 766.695 37.1626 766.873 37.8251C767.067 38.5001 766.561 39.1751 765.757 39.3251C765.654 39.3501 765.535 39.3626 765.429 39.3626C764.745 39.3626 764.135 38.9751 763.97 38.4001ZM831.718 38.1876H831.734C830.99 37.8876 830.677 37.1376 831.033 36.5126C831.39 35.8876 832.285 35.6376 833.029 35.9376C833.758 36.2376 834.07 36.9876 833.714 37.6001C833.461 38.0501 832.925 38.3126 832.374 38.3126C832.149 38.3126 831.928 38.2626 831.718 38.1876ZM771.342 37.0376C771.179 36.3626 771.714 35.7001 772.518 35.5751C773.322 35.4376 774.111 35.8876 774.26 36.5626C774.424 37.2376 773.888 37.9001 773.084 38.0251C772.994 38.0376 772.89 38.0501 772.802 38.0501C772.099 38.0501 771.474 37.6376 771.342 37.0376ZM778.757 35.9001C778.623 35.2251 779.188 34.5876 779.992 34.4751C780.811 34.3751 781.571 34.8376 781.69 35.5251C781.824 36.2001 781.273 36.8376 780.454 36.9501C780.38 36.9626 780.305 36.9626 780.216 36.9626C779.501 36.9626 778.859 36.5251 778.757 35.9001ZM824.915 36.3501C824.111 36.2126 823.588 35.5376 823.767 34.8751C823.93 34.1876 824.721 33.7626 825.525 33.9001C826.329 34.0501 826.85 34.7126 826.672 35.3876C826.523 35.9751 825.912 36.3751 825.214 36.3751C825.123 36.3751 825.017 36.3751 824.915 36.3501ZM786.216 35.0001C786.112 34.3126 786.693 33.6876 787.512 33.6126C788.331 33.5251 789.075 34.0126 789.165 34.7001C789.267 35.3876 788.688 36.0126 787.869 36.0876C787.81 36.1001 787.75 36.1001 787.69 36.1001C786.946 36.1001 786.304 35.6376 786.216 35.0001ZM793.706 34.3251C793.631 33.6376 794.257 33.0376 795.076 32.9876C795.895 32.9251 796.609 33.4376 796.667 34.1376C796.743 34.8251 796.118 35.4251 795.298 35.4751C795.268 35.4751 795.223 35.4751 795.178 35.4751C794.421 35.4751 793.765 34.9751 793.706 34.3251ZM817.632 35.4501C816.813 35.3751 816.203 34.7626 816.279 34.0876C816.368 33.4001 817.083 32.8876 817.902 32.9626C817.902 32.9626 817.902 32.9626 817.916 32.9626C818.735 33.0251 819.331 33.6376 819.242 34.3251C819.182 34.9626 818.528 35.4501 817.769 35.4501C817.723 35.4501 817.678 35.4501 817.632 35.4501ZM801.225 33.9126C801.194 33.2251 801.836 32.6501 802.669 32.6251C803.488 32.6001 804.173 33.1501 804.203 33.8376C804.233 34.5251 803.578 35.1001 802.759 35.1251C802.742 35.1251 802.727 35.1251 802.714 35.1251C801.91 35.1251 801.24 34.6001 801.225 33.9126ZM810.204 35.0876C809.383 35.0751 808.73 34.5001 808.758 33.8126C808.774 33.1251 809.459 32.5751 810.278 32.5876C811.097 32.6001 811.752 33.1751 811.736 33.8751C811.706 34.5501 811.051 35.0876 810.247 35.0876C810.233 35.0876 810.218 35.0876 810.204 35.0876ZM809.8 53.0776L809.62 44.4439H812.864V55.3276H808.202L804.964 46.3951H804.895L805.074 55.3276H801.85V44.4439H806.716L809.729 53.0776H809.8ZM750.843 45.4626L749.047 55.4426H745.51L747.937 44.4439H753.764L756.185 55.4426H752.66L750.915 45.4626H750.843ZM766.12 52.8514L767.738 44.4439H773.081L773.364 55.4426H770.091L770.003 45.5539H769.935L767.746 55.4426H764.422L762.229 45.5539H762.161L762.079 55.4426H758.797L759.087 44.4439H764.433L766.048 52.8514H766.12ZM739.993 52.3401C740.122 52.6064 740.082 52.9501 740.023 53.1551C739.913 53.5214 739.616 53.8926 738.748 53.8926C737.925 53.8926 737.429 53.4964 737.429 52.8951V51.8314H733.911L733.908 52.6826C733.908 55.1339 736.207 55.8764 738.672 55.8764C741.043 55.8764 742.993 55.1964 743.303 53.3626C743.464 52.4114 743.343 51.7914 743.29 51.5539C742.737 49.2514 737.764 48.5639 737.395 47.2764C737.331 47.0564 737.35 46.8226 737.381 46.6951C737.474 46.3451 737.759 45.9589 738.577 45.9589C739.342 45.9589 739.793 46.3576 739.793 46.9564C739.793 47.1576 739.793 47.6364 739.793 47.6364H743.059V46.8651C743.059 44.4689 740.498 44.0951 738.642 44.0951C736.311 44.0951 734.408 44.7426 734.059 46.5314C733.964 47.0251 733.951 47.4664 734.089 48.0189C734.665 50.2626 739.317 50.9151 739.993 52.3401ZM782.592 52.3201C782.722 52.5839 782.68 52.9189 782.622 53.1251C782.513 53.4914 782.221 53.8564 781.358 53.8564C780.548 53.8564 780.054 53.4601 780.054 52.8726L780.051 51.8176H776.571L776.565 52.6576C776.565 55.0839 778.843 55.8176 781.282 55.8176C783.626 55.8176 785.558 55.1464 785.865 53.3314C786.026 52.3876 785.913 51.7751 785.855 51.5426C785.305 49.2626 780.383 48.5814 780.018 47.3051C779.954 47.0851 779.973 46.8551 780.004 46.7351C780.1 46.3801 780.38 46.0064 781.19 46.0064C781.95 46.0064 782.391 46.3939 782.391 46.9901C782.391 47.1901 782.391 47.6639 782.391 47.6639H785.633V46.8989C785.633 44.5276 783.093 44.1576 781.254 44.1576C778.949 44.1576 777.062 44.7964 776.721 46.5739C776.626 47.0614 776.616 47.4939 776.753 48.0426C777.318 50.2626 781.925 50.9101 782.592 52.3201ZM793.596 53.7976C794.504 53.7976 794.787 53.2701 794.849 53.0001C794.876 52.8801 794.884 52.7226 794.881 52.5789V44.4389H798.194V52.3289C798.201 52.5301 798.177 52.9476 798.164 53.0489C797.932 55.1039 795.996 55.7676 793.591 55.7676C791.181 55.7676 789.246 55.1001 789.016 53.0489C789.005 52.9451 788.981 52.5276 788.986 52.3289V44.4389H792.296V52.5764C792.296 52.7176 792.302 52.8801 792.327 52.9976C792.406 53.2664 792.68 53.7976 793.596 53.7976ZM820.927 53.6801C821.876 53.6801 822.208 53.1776 822.269 52.8851C822.292 52.7589 822.3 52.6064 822.298 52.4664V50.8701H820.954V49.2651H825.599V52.2176C825.597 52.4239 825.592 52.5764 825.552 52.9426C825.336 54.9439 823.266 55.6576 820.945 55.6576C818.619 55.6576 816.556 54.9439 816.334 52.9426C816.296 52.5751 816.292 52.4239 816.286 52.2176L816.289 47.5876C816.289 47.3926 816.319 47.0464 816.344 46.8626C816.634 44.8064 818.619 44.1451 820.945 44.1451C823.268 44.1451 825.303 44.8039 825.544 46.8626C825.586 47.2126 825.574 47.5876 825.574 47.5876V47.9551H822.272V47.3389C822.275 47.3414 822.266 47.0776 822.23 46.9201C822.175 46.6764 821.923 46.1176 820.923 46.1176C819.967 46.1176 819.69 46.6451 819.618 46.9201C819.578 47.0639 819.563 47.2614 819.563 47.4389V52.4701C819.56 52.6101 819.571 52.7626 819.597 52.8889C819.65 53.1776 819.979 53.6801 820.927 53.6801Z" fill="black"/>
</g>
<path d="M988.5 17.1875V26.2329L990.249 26.1261C1012.58 25.3605 1027.16 44.4366 1027.16 44.4366C1027.16 44.4366 1010.44 64.7827 993.032 64.7827C991.516 64.7827 989.969 64.6421 988.5 64.3921V59.7961C990.016 60.2961 991.657 60.5469 993.282 60.5469C1005.49 60.5469 1016.84 44.7662 1016.84 44.7662C1016.84 44.7662 1006.31 30.4231 990.249 30.9387C989.667 30.9387 989.103 30.9832 988.537 30.9998V26.2329C968.843 27.8251 951.827 44.4794 951.827 44.4794C951.827 44.4794 961.458 72.3543 988.5 74.8871V69.8273C989.719 69.9679 991.032 70.0775 992.251 70.0775C1008.49 70.0775 1020.22 61.7954 1031.58 52.0142C1033.47 53.5298 1041.17 57.1862 1042.77 58.7799C1031.97 67.8268 1006.81 75.0946 992.547 75.0946C991.172 75.0946 989.813 75.0308 988.5 74.8901V82.8125H1049.44V17.1875H988.5ZM988.5 31.0181V36.8744C989.578 36.7806 990.672 36.6871 991.766 36.734C1002.03 36.734 1008.16 44.7357 1008.16 44.7357L999.798 51.767C996.063 45.5013 994.75 42.733 988.5 41.983V59.7931C980.066 56.9337 977.279 47.049 977.279 47.049C977.279 47.049 982.201 41.1855 988.464 41.9464H988.5V36.8774C976.553 38.1806 969.35 46.1456 969.35 46.1456C969.35 46.1456 973.513 61.7475 988.5 64.4257V69.8181C968.663 67.3572 961.892 45.4926 961.892 45.4926C961.892 45.4926 970.75 32.4086 988.5 31.0181Z" fill="black"/>
<defs>
<linearGradient id="paint0_linear_1_4065" x1="133.996" y1="10.9666" x2="133.996" y2="88.002" gradientUnits="userSpaceOnUse">
<stop stop-color="#4A4A4A"/>
<stop offset="0.659" stop-color="#323232"/>
<stop offset="1" stop-color="#232323"/>
</linearGradient>
<clipPath id="clip0_1_4065">
<rect width="100" height="100" fill="white" transform="translate(83.8828)"/>
</clipPath>
<clipPath id="clip1_1_4065">
<rect width="119.117" height="100" fill="white" transform="translate(719.883)"/>
</clipPath>
</defs>
</svg>
