<svg width="51" height="50" viewBox="0 0 51 50" fill="none" xmlns="http://www.w3.org/2000/svg">
<rect x="42.125" y="43.281" width="7.82924" height="3.50271" fill="#38D4FF"/>
<path d="M45.5842 5.31833L42.3924 12.3623C42.2162 12.7513 42.125 13.1735 42.125 13.6005V45.6593C42.125 46.7638 43.0204 47.6593 44.125 47.6593H47.9542C49.0588 47.6593 49.9542 46.7638 49.9542 45.6593V13.6005C49.9542 13.1735 49.8631 12.7513 49.6868 12.3623L46.495 5.31833C46.3176 4.92681 45.7616 4.92681 45.5842 5.31833Z" stroke="#5956E9" stroke-width="2"/>
<path d="M42.125 13.5076H46.5289H49.9542" stroke="#5956E9" stroke-width="2"/>
<path d="M42.125 43.281H49.9542" stroke="#5956E9" stroke-width="2"/>
<path d="M23.9751 10.3952L23.5965 4.10158C23.561 3.51144 24.0425 3.0195 24.6333 3.04228L25.8052 3.08746C26.0531 3.09702 26.2887 3.19842 26.466 3.37195L35.1432 11.8621C35.663 12.3706 35.4834 13.2462 34.8056 13.5092L32.7587 14.3033C32.6223 14.3562 32.4761 14.3785 32.3302 14.3687L26.8835 14.0042C26.5906 13.9846 26.3211 13.8373 26.1465 13.6014L24.1695 10.9301C24.0543 10.7744 23.9867 10.5886 23.9751 10.3952Z" fill="#38D4FF"/>
<path d="M2 9.12378V40.876C2 44.742 5.13401 47.876 9 47.876H29.5041C33.3701 47.876 36.5041 44.742 36.5041 40.876V15.1927C36.5041 13.2053 35.6592 11.3115 34.1803 9.98378L27.4199 3.91483C26.1353 2.76164 24.47 2.12378 22.7437 2.12378H9C5.13401 2.12378 2 5.25779 2 9.12378Z" stroke="#5956E9" stroke-width="2.5"/>
<path d="M6.89355 27.0809C6.89355 26.3554 7.68224 25.7673 8.65513 25.7673H28.6197C29.5926 25.7673 30.3813 26.3554 30.3813 27.0809C30.3813 27.8063 29.5926 28.3944 28.6197 28.3944H8.65513C7.68224 28.3944 6.89355 27.8063 6.89355 27.0809Z" fill="#E541ED"/>
<path d="M6.89355 20.9507C6.89355 20.2253 7.68224 19.6372 8.65513 19.6372H28.6197C29.5926 19.6372 30.3813 20.2253 30.3813 20.9507C30.3813 21.6762 29.5926 22.2642 28.6197 22.2642H8.65513C7.68224 22.2642 6.89355 21.6762 6.89355 20.9507Z" fill="#E541ED"/>
<path d="M6.89355 33.2107C6.89355 32.4853 7.68224 31.8972 8.65513 31.8972H28.6197C29.5926 31.8972 30.3813 32.4853 30.3813 33.2107C30.3813 33.9362 29.5926 34.5242 28.6197 34.5242H8.65513C7.68224 34.5242 6.89355 33.9362 6.89355 33.2107Z" fill="#E541ED"/>
<path d="M6.89355 39.3396C6.89355 38.6142 7.69163 38.0261 8.67611 38.0261H21.7481C22.7326 38.0261 23.5307 38.6142 23.5307 39.3396C23.5307 40.0651 22.7326 40.6532 21.7481 40.6532H8.67611C7.69163 40.6532 6.89355 40.0651 6.89355 39.3396Z" fill="#E541ED"/>
<path d="M23.4092 2.30933V10.0264C23.4092 12.2355 25.2 14.0264 27.4092 14.0264H35.6727" stroke="#5956E9" stroke-width="2.5" stroke-linecap="round"/>
</svg>
