<svg width="55" height="72" viewBox="0 0 55 72" fill="none" xmlns="http://www.w3.org/2000/svg">
<circle cx="27.5" cy="28.1025" r="27.5" fill="#5956E9"/>
<path d="M22.22 36.7225C21.26 36.7225 20.42 36.5425 19.7 36.1825C18.98 35.7825 18.4 35.2625 17.96 34.6225C17.56 33.9825 17.24 33.2225 17 32.3425C16.76 31.4625 16.64 30.5425 16.64 29.5825C16.64 27.6225 17.14 25.7825 18.14 24.0625C19.18 22.3425 20.78 20.9825 22.94 19.9825L23.48 21.0625C22.36 21.5825 21.36 22.3425 20.48 23.3425C19.64 24.3025 19.14 25.3225 18.98 26.4025C18.74 27.2425 18.72 28.0625 18.92 28.8625C19.8 27.9025 20.98 27.4225 22.46 27.4225C23.82 27.4225 24.94 27.8425 25.82 28.6825C26.7 29.4825 27.14 30.6025 27.14 32.0425C27.14 33.4425 26.68 34.5825 25.76 35.4625C24.84 36.3025 23.66 36.7225 22.22 36.7225ZM34.58 36.7225C33.62 36.7225 32.78 36.5425 32.06 36.1825C31.34 35.7825 30.76 35.2625 30.32 34.6225C29.92 33.9825 29.6 33.2225 29.36 32.3425C29.12 31.4625 29 30.5425 29 29.5825C29 27.6225 29.5 25.7825 30.5 24.0625C31.54 22.3425 33.14 20.9825 35.3 19.9825L35.84 21.0625C34.72 21.5825 33.72 22.3425 32.84 23.3425C32 24.3025 31.5 25.3225 31.34 26.4025C31.1 27.2425 31.08 28.0625 31.28 28.8625C32.16 27.9025 33.34 27.4225 34.82 27.4225C36.18 27.4225 37.3 27.8425 38.18 28.6825C39.06 29.4825 39.5 30.6025 39.5 32.0425C39.5 33.4425 39.04 34.5825 38.12 35.4625C37.2 36.3025 36.02 36.7225 34.58 36.7225Z" fill="white"/>
</svg>
