<svg width="55" height="73" viewBox="0 0 55 73" fill="none" xmlns="http://www.w3.org/2000/svg">
<ellipse cx="27.5" cy="28.6438" rx="27.5" ry="28.0413" fill="#F1F1F1"/>
<path d="M22.22 36.8209C21.26 36.8209 20.42 36.6409 19.7 36.2809C18.98 35.8809 18.4 35.3609 17.96 34.7209C17.56 34.0809 17.24 33.3209 17 32.4409C16.76 31.5609 16.64 30.6409 16.64 29.6809C16.64 27.7209 17.14 25.8809 18.14 24.1609C19.18 22.4409 20.78 21.0809 22.94 20.0809L23.48 21.1609C22.36 21.6809 21.36 22.4409 20.48 23.4409C19.64 24.4009 19.14 25.4209 18.98 26.5009C18.74 27.3409 18.72 28.1609 18.92 28.9609C19.8 28.0009 20.98 27.5209 22.46 27.5209C23.82 27.5209 24.94 27.9409 25.82 28.7809C26.7 29.5809 27.14 30.7009 27.14 32.1409C27.14 33.5409 26.68 34.6809 25.76 35.5609C24.84 36.4009 23.66 36.8209 22.22 36.8209ZM34.58 36.8209C33.62 36.8209 32.78 36.6409 32.06 36.2809C31.34 35.8809 30.76 35.3609 30.32 34.7209C29.92 34.0809 29.6 33.3209 29.36 32.4409C29.12 31.5609 29 30.6409 29 29.6809C29 27.7209 29.5 25.8809 30.5 24.1609C31.54 22.4409 33.14 21.0809 35.3 20.0809L35.84 21.1609C34.72 21.6809 33.72 22.4409 32.84 23.4409C32 24.4009 31.5 25.4209 31.34 26.5009C31.1 27.3409 31.08 28.1609 31.28 28.9609C32.16 28.0009 33.34 27.5209 34.82 27.5209C36.18 27.5209 37.3 27.9409 38.18 28.7809C39.06 29.5809 39.5 30.7009 39.5 32.1409C39.5 33.5409 39.04 34.6809 38.12 35.5609C37.2 36.4009 36.02 36.8209 34.58 36.8209Z" fill="black"/>
</svg>
