<svg width="76" height="76" viewBox="0 0 76 76" fill="none" xmlns="http://www.w3.org/2000/svg">
<path d="M58.3895 75L16.7229 75.0395C7.55625 75.0479 0.050007 67.5562 0.0395904 58.3896L6.94544e-06 16.7229C-0.00832638 7.55625 7.48334 0.050007 16.65 0.0395904L58.3166 6.94544e-06C67.4833 -0.00832638 74.9895 7.48334 75 16.65L75.0395 58.3166C75.0499 67.4854 67.5562 74.9916 58.3895 75Z" fill="url(#paint0_radial_287_18)"/>
<path d="M58.3895 75L16.7229 75.0395C7.55625 75.0479 0.050007 67.5562 0.0395904 58.3896L6.94544e-06 16.7229C-0.00832638 7.55625 7.48334 0.050007 16.65 0.0395904L58.3166 6.94544e-06C67.4833 -0.00832638 74.9895 7.48334 75 16.65L75.0395 58.3166C75.0499 67.4854 67.5562 74.9916 58.3895 75Z" fill="url(#paint1_radial_287_18)"/>
<path d="M37.5208 52.1041C29.4812 52.1041 22.9375 45.5625 22.9375 37.5208C22.9375 29.4792 29.4812 22.9375 37.5208 22.9375C45.5604 22.9375 52.1041 29.4792 52.1041 37.5208C52.1041 45.5625 45.5604 52.1041 37.5208 52.1041ZM37.5208 27.1042C31.7771 27.1042 27.1042 31.7771 27.1042 37.5208C27.1042 43.2646 31.7771 47.9375 37.5208 47.9375C43.2646 47.9375 47.9375 43.2646 47.9375 37.5208C47.9375 31.7771 43.2646 27.1042 37.5208 27.1042Z" fill="white"/>
<path d="M53.1465 25.0209C54.8724 25.0209 56.2715 23.6218 56.2715 21.8959C56.2715 20.17 54.8724 18.7709 53.1465 18.7709C51.4206 18.7709 50.0215 20.17 50.0215 21.8959C50.0215 23.6218 51.4206 25.0209 53.1465 25.0209Z" fill="white"/>
<path d="M50.0208 64.6041H25.0208C16.9812 64.6041 10.4375 58.0625 10.4375 50.0208V25.0208C10.4375 16.9792 16.9812 10.4375 25.0208 10.4375H50.0208C58.0604 10.4375 64.6041 16.9792 64.6041 25.0208V50.0208C64.6041 58.0625 58.0604 64.6041 50.0208 64.6041ZM25.0208 14.6042C19.2771 14.6042 14.6042 19.2771 14.6042 25.0208V50.0208C14.6042 55.7646 19.2771 60.4375 25.0208 60.4375H50.0208C55.7646 60.4375 60.4375 55.7646 60.4375 50.0208V25.0208C60.4375 19.2771 55.7646 14.6042 50.0208 14.6042H25.0208Z" fill="white"/>
<defs>
<radialGradient id="paint0_radial_287_18" cx="0" cy="0" r="1" gradientUnits="userSpaceOnUse" gradientTransform="translate(27.8958 75.0937) scale(93.5395 93.5395)">
<stop/>
<stop offset="0.328"/>
<stop offset="0.348"/>
<stop offset="0.504"/>
<stop offset="0.643"/>
<stop offset="0.761"/>
<stop offset="0.841"/>
</radialGradient>
<radialGradient id="paint1_radial_287_18" cx="0" cy="0" r="1" gradientUnits="userSpaceOnUse" gradientTransform="translate(12.075 -0.936867) scale(62.1104)">
<stop/>
<stop offset="0.999" stop-color="#4168C9" stop-opacity="0"/>
</radialGradient>
</defs>
</svg>
