<svg width="76" height="76" viewBox="0 0 76 76" fill="none" xmlns="http://www.w3.org/2000/svg">
<path d="M58.8681 75.4791L17.2014 75.5187C8.03477 75.527 0.528523 68.0354 0.518106 58.8687L0.478523 17.202C0.470189 8.03538 7.96186 0.529133 17.1285 0.518716L58.7952 0.479133C67.9619 0.4708 75.4681 7.96247 75.4785 17.1291L75.5181 58.7958C75.5285 67.9645 68.0348 75.4708 58.8681 75.4791Z" fill="url(#paint0_radial_287_56)"/>
<path d="M58.8681 75.4791L17.2014 75.5187C8.03477 75.527 0.528523 68.0354 0.518106 58.8687L0.478523 17.202C0.470189 8.03538 7.96186 0.529133 17.1285 0.518716L58.7952 0.479133C67.9619 0.4708 75.4681 7.96247 75.4785 17.1291L75.5181 58.7958C75.5285 67.9645 68.0348 75.4708 58.8681 75.4791Z" fill="url(#paint1_radial_287_56)"/>
<path d="M37.9993 52.5833C29.9598 52.5833 23.416 46.0416 23.416 38C23.416 29.9583 29.9598 23.4166 37.9993 23.4166C46.0389 23.4166 52.5827 29.9583 52.5827 38C52.5827 46.0416 46.0389 52.5833 37.9993 52.5833ZM37.9993 27.5833C32.2556 27.5833 27.5827 32.2562 27.5827 38C27.5827 43.7437 32.2556 48.4166 37.9993 48.4166C43.7431 48.4166 48.416 43.7437 48.416 38C48.416 32.2562 43.7431 27.5833 37.9993 27.5833Z" fill="white"/>
<path d="M53.625 25.5C55.3509 25.5 56.75 24.1009 56.75 22.375C56.75 20.6491 55.3509 19.25 53.625 19.25C51.8991 19.25 50.5 20.6491 50.5 22.375C50.5 24.1009 51.8991 25.5 53.625 25.5Z" fill="white"/>
<path d="M50.4993 65.0833H25.4993C17.4598 65.0833 10.916 58.5416 10.916 50.5V25.5C10.916 17.4583 17.4598 10.9166 25.4993 10.9166H50.4993C58.5389 10.9166 65.0827 17.4583 65.0827 25.5V50.5C65.0827 58.5416 58.5389 65.0833 50.4993 65.0833ZM25.4993 15.0833C19.7556 15.0833 15.0827 19.7562 15.0827 25.5V50.5C15.0827 56.2437 19.7556 60.9166 25.4993 60.9166H50.4993C56.2431 60.9166 60.916 56.2437 60.916 50.5V25.5C60.916 19.7562 56.2431 15.0833 50.4993 15.0833H25.4993Z" fill="white"/>
<defs>
<radialGradient id="paint0_radial_287_56" cx="0" cy="0" r="1" gradientUnits="userSpaceOnUse" gradientTransform="translate(28.3744 75.5729) scale(93.5396 93.5396)">
<stop stop-color="#FFDD55"/>
<stop offset="0.328" stop-color="#FF543F"/>
<stop offset="0.348" stop-color="#FC5245"/>
<stop offset="0.504" stop-color="#E64771"/>
<stop offset="0.643" stop-color="#D53E91"/>
<stop offset="0.761" stop-color="#CC39A4"/>
<stop offset="0.841" stop-color="#C837AB"/>
</radialGradient>
<radialGradient id="paint1_radial_287_56" cx="0" cy="0" r="1" gradientUnits="userSpaceOnUse" gradientTransform="translate(12.5535 -0.457737) scale(62.1104 41.3842)">
<stop stop-color="#4168C9"/>
<stop offset="0.999" stop-color="#4168C9" stop-opacity="0"/>
</radialGradient>
</defs>
</svg>
