<svg width="84" height="84" viewBox="0 0 84 84" fill="none" xmlns="http://www.w3.org/2000/svg">
<path d="M42.0006 0.333374C30.95 0.333374 20.3519 4.72324 12.5379 12.5373C4.72385 20.3513 0.333984 30.9494 0.333984 42C0.333984 53.0507 4.72385 63.6488 12.5379 71.4628C20.3519 79.2768 30.95 83.6667 42.0006 83.6667C53.0513 83.6667 63.6494 79.2768 71.4634 71.4628C79.2774 63.6488 83.6673 53.0507 83.6673 42C83.6673 30.9494 79.2774 20.3513 71.4634 12.5373C63.6494 4.72324 53.0513 0.333374 42.0006 0.333374Z" fill="#29B6F6"/>
<path d="M62.7298 23.25L54.9257 63.0958C54.9257 63.0958 54.5902 64.9166 52.3319 64.9166C51.1319 64.9166 50.5132 64.3458 50.5132 64.3458L33.609 50.3187L25.3382 46.15L14.7236 43.327C14.7236 43.327 12.834 42.7812 12.834 41.2187C12.834 39.9166 14.7777 39.2958 14.7777 39.2958L59.1861 21.6541C59.1861 21.6541 60.5423 21.1645 61.5319 21.1666C62.1402 21.1666 62.834 21.427 62.834 22.2083C62.834 22.7291 62.7298 23.25 62.7298 23.25Z" fill="white"/>
<path d="M39.9164 55.5521L32.7789 62.5812C32.7789 62.5812 32.4685 62.8208 32.0539 62.8312C31.9102 62.8354 31.756 62.8125 31.5977 62.7417L33.606 50.3146L39.9164 55.5521Z" fill="#B0BEC5"/>
<path d="M54.2861 29.9084C53.934 29.45 53.284 29.3667 52.8256 29.7146L25.334 46.1667C25.334 46.1667 29.7215 58.4417 30.3902 60.5667C31.0611 62.6938 31.5986 62.7438 31.5986 62.7438L33.6069 50.3167L54.0902 31.3667C54.5486 31.0188 54.634 30.3667 54.2861 29.9084Z" fill="#CFD8DC"/>
</svg>
