<svg width="84" height="84" viewBox="0 0 84 84" fill="none" xmlns="http://www.w3.org/2000/svg">
<path d="M41.6666 0C18.6548 0 0 18.6548 0 41.6666C0 64.6785 18.6548 83.3333 41.6666 83.3333C64.6785 83.3333 83.3333 64.6785 83.3333 41.6666C83.3333 18.6548 64.6785 0 41.6666 0Z" fill="black"/>
<path d="M62.3958 22.9166L54.5916 62.7624C54.5916 62.7624 54.2562 64.5832 51.9979 64.5832C50.7979 64.5832 50.1791 64.0124 50.1791 64.0124L33.275 49.9853L25.0042 45.8166L14.3896 42.9937C14.3896 42.9937 12.5 42.4478 12.5 40.8853C12.5 39.5832 14.4437 38.9624 14.4437 38.9624L58.8521 21.3208C58.85 21.3187 60.2083 20.8312 61.1979 20.8333C61.8062 20.8333 62.5 21.0937 62.5 21.8749C62.5 22.3958 62.3958 22.9166 62.3958 22.9166Z" fill="white"/>
<path d="M39.5824 55.2187L32.4449 62.2479C32.4449 62.2479 32.1345 62.4874 31.7199 62.4979C31.5762 62.502 31.422 62.4791 31.2637 62.4083L33.272 49.9812L39.5824 55.2187Z" fill="#B0BEC5"/>
<path d="M53.9521 29.575C53.6 29.1166 52.95 29.0333 52.4916 29.3812L25 45.8333C25 45.8333 29.3875 58.1083 30.0562 60.2333C30.7271 62.3604 31.2646 62.4104 31.2646 62.4104L33.2729 49.9833L53.7562 31.0333C54.2146 30.6854 54.3 30.0333 53.9521 29.575Z" fill="#CFD8DC"/>
</svg>
