<svg width="76" height="76" viewBox="0 0 76 76" fill="none" xmlns="http://www.w3.org/2000/svg">
<path fill-rule="evenodd" clip-rule="evenodd" d="M10.7167 0.5H65.2813C70.925 0.5 75.5 5.075 75.5 10.7167V65.2813C75.5 70.925 70.925 75.5 65.2833 75.5H10.7167C5.075 75.5 0.5 70.925 0.5 65.2833V10.7167C0.5 5.075 5.075 0.5 10.7167 0.5Z" fill="#212121"/>
<path fill-rule="evenodd" clip-rule="evenodd" d="M48.8496 30.9312C52.1329 33.277 56.1559 34.6562 60.4996 34.6562V26.2999C59.6767 26.2999 58.8579 26.2145 58.0538 26.0437V32.6208C53.71 32.6208 49.6892 31.2395 46.4038 28.8958V45.9458C46.4038 54.4749 39.485 61.3895 30.9517 61.3895C27.7684 61.3895 24.8079 60.427 22.3496 58.777C25.1559 61.6437 29.0684 63.4229 33.3975 63.4229C41.9309 63.4229 48.8496 56.5083 48.8496 47.9791V30.9312ZM51.8684 22.502C50.1913 20.6708 49.0892 18.302 48.8496 15.6833V14.6083H46.5309C47.1142 17.9354 49.1059 20.7791 51.8684 22.502ZM27.7475 52.2333C26.81 51.0041 26.3038 49.502 26.3059 47.9562C26.3059 44.0541 29.4704 40.8916 33.3746 40.8916C34.1017 40.8916 34.8246 41.002 35.5184 41.2229V32.6812C34.7079 32.5708 33.8913 32.5229 33.0725 32.5395V39.1874C32.3788 38.9666 31.6559 38.8562 30.9267 38.8562C27.0225 38.8562 23.8579 42.0187 23.8579 45.9208C23.86 48.6812 25.4413 51.0708 27.7475 52.2333Z" fill="#EC407A"/>
<path fill-rule="evenodd" clip-rule="evenodd" d="M46.4034 28.8958C49.6867 31.2416 53.7096 32.6208 58.0534 32.6208V26.0437C55.6284 25.527 53.4825 24.2604 51.868 22.4999C49.1055 20.777 47.1159 17.9354 46.5326 14.6083H40.443V47.9791C40.4284 51.8687 37.2701 55.0187 33.3742 55.0187C31.0784 55.0187 29.0388 53.9249 27.7471 52.2312C25.4409 51.0687 23.8596 48.6791 23.8596 45.9208C23.8596 42.0187 27.0242 38.8562 30.9284 38.8562C31.6763 38.8562 32.3971 38.9729 33.0742 39.1874V32.5416C24.6909 32.7145 17.9492 39.5604 17.9492 47.9812C17.9492 52.1854 19.6284 55.9958 22.3534 58.7791C24.8117 60.4291 27.7721 61.3916 30.9555 61.3916C39.4888 61.3916 46.4075 54.477 46.4075 45.9479L46.4034 28.8958Z" fill="white"/>
<path fill-rule="evenodd" clip-rule="evenodd" d="M58.0542 26.0458V24.2666C55.8667 24.2708 53.725 23.6583 51.8688 22.5C53.5104 24.2979 55.6729 25.5375 58.0542 26.0458ZM46.5312 14.6083C46.475 14.2895 46.4333 13.9708 46.4042 13.6479V12.5729H37.9958V45.9458C37.9833 49.8354 34.8229 52.9854 30.9271 52.9854C29.7833 52.9854 28.7042 52.7145 27.7479 52.2312C29.0396 53.925 31.0792 55.0187 33.375 55.0187C37.2708 55.0187 40.4292 51.8687 40.4438 47.9791V14.6083H46.5312ZM33.0729 32.5416V30.6479C32.3708 30.552 31.6625 30.5041 30.9521 30.5041C22.4167 30.5041 15.5 37.4187 15.5 45.9479C15.5 51.2958 18.2188 56.0083 22.35 58.7791C19.625 55.9958 17.9458 52.1854 17.9458 47.9812C17.9458 39.5604 24.6896 32.7145 33.0729 32.5416Z" fill="#81D4FA"/>
</svg>
