<svg width="84" height="64" viewBox="0 0 84 64" fill="none" xmlns="http://www.w3.org/2000/svg">
<path d="M82.0006 52.625C81.1673 57 77.6256 60.3333 73.2506 60.9583C66.3756 62 54.9173 63.25 42.0006 63.25C29.2923 63.25 17.834 62 10.7507 60.9583C6.37565 60.3333 2.83398 57 2.00065 52.625C1.16732 47.8333 0.333984 40.75 0.333984 32C0.333984 23.25 1.16732 16.1667 2.00065 11.375C2.83398 7 6.37565 3.66667 10.7507 3.04167C17.6257 2 29.084 0.75 42.0006 0.75C54.9173 0.75 66.1673 2 73.2506 3.04167C77.6256 3.66667 81.1673 7 82.0006 11.375C82.834 16.1667 83.8756 23.25 83.8756 32C83.6673 40.75 82.834 47.8333 82.0006 52.625Z" fill="#FF3D00"/>
<path d="M33.666 46.5833V17.4166L58.666 32L33.666 46.5833Z" fill="white"/>
</svg>
