<svg width="84" height="63" viewBox="0 0 84 63" fill="none" xmlns="http://www.w3.org/2000/svg">
<path d="M81.6666 51.875C80.8333 56.25 77.2916 59.5833 72.9166 60.2083C66.0416 61.25 54.5833 62.5 41.6666 62.5C28.9583 62.5 17.5 61.25 10.4167 60.2083C6.04166 59.5833 2.5 56.25 1.66667 51.875C0.833333 47.0833 0 40 0 31.25C0 22.5 0.833333 15.4167 1.66667 10.625C2.5 6.25 6.04166 2.91667 10.4167 2.29167C17.2917 1.25 28.75 0 41.6666 0C54.5833 0 65.8333 1.25 72.9166 2.29167C77.2916 2.91667 80.8333 6.25 81.6666 10.625C82.5 15.4167 83.5416 22.5 83.5416 31.25C83.3333 40 82.5 47.0833 81.6666 51.875Z" fill="black"/>
<path d="M33.334 45.8333V16.6666L58.334 31.2499L33.334 45.8333Z" fill="white"/>
</svg>
